<mxfile host="app.diagrams.net" modified="2023-06-15T04:59:17.632Z" agent="Mozilla/5.0 (Windows NT 10.0; Win64; x64) AppleWebKit/537.36 (KHTML, like Gecko) Chrome/114.0.0.0 Safari/537.36" etag="QPoZsUAr05oUYYkfBWzF" version="21.3.8" type="github">
  <diagram name="Page-1" id="A4Fn6A_66QbCQViwzLfp">
    <mxGraphModel dx="1434" dy="1888" grid="1" gridSize="10" guides="1" tooltips="1" connect="1" arrows="1" fold="1" page="1" pageScale="1" pageWidth="850" pageHeight="1100" math="0" shadow="0">
      <root>
        <mxCell id="0" />
        <mxCell id="1" parent="0" />
        <mxCell id="C7X_2EN3PPDYc6NS7n13-7" style="edgeStyle=orthogonalEdgeStyle;rounded=0;orthogonalLoop=1;jettySize=auto;html=1;entryX=0.5;entryY=0;entryDx=0;entryDy=0;labelBackgroundColor=none;fontColor=default;" edge="1" parent="1" source="C7X_2EN3PPDYc6NS7n13-3" target="C7X_2EN3PPDYc6NS7n13-5">
          <mxGeometry relative="1" as="geometry" />
        </mxCell>
        <mxCell id="C7X_2EN3PPDYc6NS7n13-3" value="Start" style="strokeWidth=2;html=1;shape=mxgraph.flowchart.terminator;whiteSpace=wrap;labelBackgroundColor=none;" vertex="1" parent="1">
          <mxGeometry x="375" y="-1040" width="100" height="50" as="geometry" />
        </mxCell>
        <mxCell id="C7X_2EN3PPDYc6NS7n13-8" style="edgeStyle=orthogonalEdgeStyle;rounded=0;orthogonalLoop=1;jettySize=auto;html=1;entryX=0.5;entryY=0;entryDx=0;entryDy=0;labelBackgroundColor=none;fontColor=default;" edge="1" parent="1" source="C7X_2EN3PPDYc6NS7n13-5" target="C7X_2EN3PPDYc6NS7n13-6">
          <mxGeometry relative="1" as="geometry" />
        </mxCell>
        <mxCell id="C7X_2EN3PPDYc6NS7n13-5" value="Age" style="shape=parallelogram;html=1;strokeWidth=2;perimeter=parallelogramPerimeter;whiteSpace=wrap;rounded=1;arcSize=12;size=0.23;labelBackgroundColor=none;" vertex="1" parent="1">
          <mxGeometry x="360" y="-950" width="130" height="50" as="geometry" />
        </mxCell>
        <mxCell id="C7X_2EN3PPDYc6NS7n13-10" value="" style="edgeStyle=orthogonalEdgeStyle;rounded=0;orthogonalLoop=1;jettySize=auto;html=1;labelBackgroundColor=none;fontColor=default;" edge="1" parent="1" source="C7X_2EN3PPDYc6NS7n13-6" target="C7X_2EN3PPDYc6NS7n13-9">
          <mxGeometry relative="1" as="geometry" />
        </mxCell>
        <mxCell id="C7X_2EN3PPDYc6NS7n13-6" value="Height" style="shape=parallelogram;html=1;strokeWidth=2;perimeter=parallelogramPerimeter;whiteSpace=wrap;rounded=1;arcSize=12;size=0.23;labelBackgroundColor=none;" vertex="1" parent="1">
          <mxGeometry x="360" y="-860" width="130" height="50" as="geometry" />
        </mxCell>
        <mxCell id="C7X_2EN3PPDYc6NS7n13-12" value="" style="edgeStyle=orthogonalEdgeStyle;rounded=0;orthogonalLoop=1;jettySize=auto;html=1;labelBackgroundColor=none;fontColor=default;" edge="1" parent="1" source="C7X_2EN3PPDYc6NS7n13-9" target="C7X_2EN3PPDYc6NS7n13-11">
          <mxGeometry relative="1" as="geometry" />
        </mxCell>
        <mxCell id="C7X_2EN3PPDYc6NS7n13-18" style="edgeStyle=orthogonalEdgeStyle;rounded=0;orthogonalLoop=1;jettySize=auto;html=1;entryX=0.5;entryY=0;entryDx=0;entryDy=0;entryPerimeter=0;labelBackgroundColor=none;fontColor=default;" edge="1" parent="1" source="C7X_2EN3PPDYc6NS7n13-9" target="C7X_2EN3PPDYc6NS7n13-15">
          <mxGeometry relative="1" as="geometry" />
        </mxCell>
        <mxCell id="C7X_2EN3PPDYc6NS7n13-9" value="if Age &amp;lt;= 6&lt;br&gt;or Age &amp;gt;= 60" style="strokeWidth=2;html=1;shape=mxgraph.flowchart.decision;whiteSpace=wrap;fontSize=13;labelBackgroundColor=none;" vertex="1" parent="1">
          <mxGeometry x="375" y="-770" width="100" height="100" as="geometry" />
        </mxCell>
        <mxCell id="C7X_2EN3PPDYc6NS7n13-28" style="edgeStyle=orthogonalEdgeStyle;rounded=0;orthogonalLoop=1;jettySize=auto;html=1;exitX=1;exitY=0.5;exitDx=0;exitDy=0;entryX=1;entryY=0.5;entryDx=0;entryDy=0;entryPerimeter=0;" edge="1" parent="1" source="C7X_2EN3PPDYc6NS7n13-11" target="C7X_2EN3PPDYc6NS7n13-25">
          <mxGeometry relative="1" as="geometry" />
        </mxCell>
        <mxCell id="C7X_2EN3PPDYc6NS7n13-11" value="Enter" style="rounded=1;whiteSpace=wrap;html=1;absoluteArcSize=1;arcSize=14;strokeWidth=2;labelBackgroundColor=none;" vertex="1" parent="1">
          <mxGeometry x="540" y="-745" width="130" height="50" as="geometry" />
        </mxCell>
        <mxCell id="C7X_2EN3PPDYc6NS7n13-13" value="True" style="text;html=1;strokeColor=none;fillColor=none;align=center;verticalAlign=middle;whiteSpace=wrap;rounded=0;labelBackgroundColor=none;" vertex="1" parent="1">
          <mxGeometry x="475" y="-750" width="60" height="30" as="geometry" />
        </mxCell>
        <mxCell id="C7X_2EN3PPDYc6NS7n13-14" value="False" style="text;html=1;strokeColor=none;fillColor=none;align=center;verticalAlign=middle;whiteSpace=wrap;rounded=0;labelBackgroundColor=none;" vertex="1" parent="1">
          <mxGeometry x="360" y="-660" width="60" height="30" as="geometry" />
        </mxCell>
        <mxCell id="C7X_2EN3PPDYc6NS7n13-19" style="edgeStyle=orthogonalEdgeStyle;rounded=0;orthogonalLoop=1;jettySize=auto;html=1;entryX=0.5;entryY=1;entryDx=0;entryDy=0;labelBackgroundColor=none;fontColor=default;" edge="1" parent="1" source="C7X_2EN3PPDYc6NS7n13-15" target="C7X_2EN3PPDYc6NS7n13-11">
          <mxGeometry relative="1" as="geometry" />
        </mxCell>
        <mxCell id="C7X_2EN3PPDYc6NS7n13-22" style="edgeStyle=orthogonalEdgeStyle;rounded=0;orthogonalLoop=1;jettySize=auto;html=1;entryX=0.5;entryY=0;entryDx=0;entryDy=0;labelBackgroundColor=none;fontColor=default;" edge="1" parent="1" source="C7X_2EN3PPDYc6NS7n13-15" target="C7X_2EN3PPDYc6NS7n13-21">
          <mxGeometry relative="1" as="geometry" />
        </mxCell>
        <mxCell id="C7X_2EN3PPDYc6NS7n13-15" value="if Height &amp;gt;= 150" style="strokeWidth=2;html=1;shape=mxgraph.flowchart.decision;whiteSpace=wrap;fontSize=12;labelBackgroundColor=none;" vertex="1" parent="1">
          <mxGeometry x="375" y="-620" width="100" height="100" as="geometry" />
        </mxCell>
        <mxCell id="C7X_2EN3PPDYc6NS7n13-20" value="False" style="text;html=1;strokeColor=none;fillColor=none;align=center;verticalAlign=middle;whiteSpace=wrap;rounded=0;labelBackgroundColor=none;" vertex="1" parent="1">
          <mxGeometry x="500" y="-600" width="60" height="30" as="geometry" />
        </mxCell>
        <mxCell id="C7X_2EN3PPDYc6NS7n13-27" style="edgeStyle=orthogonalEdgeStyle;rounded=0;orthogonalLoop=1;jettySize=auto;html=1;entryX=0.5;entryY=0;entryDx=0;entryDy=0;entryPerimeter=0;" edge="1" parent="1" source="C7X_2EN3PPDYc6NS7n13-21" target="C7X_2EN3PPDYc6NS7n13-25">
          <mxGeometry relative="1" as="geometry" />
        </mxCell>
        <mxCell id="C7X_2EN3PPDYc6NS7n13-21" value="Pay 200 Bath" style="rounded=1;whiteSpace=wrap;html=1;absoluteArcSize=1;arcSize=14;strokeWidth=2;labelBackgroundColor=none;" vertex="1" parent="1">
          <mxGeometry x="360" y="-470" width="130" height="50" as="geometry" />
        </mxCell>
        <mxCell id="C7X_2EN3PPDYc6NS7n13-23" value="True" style="text;html=1;strokeColor=none;fillColor=none;align=center;verticalAlign=middle;whiteSpace=wrap;rounded=0;labelBackgroundColor=none;" vertex="1" parent="1">
          <mxGeometry x="425" y="-510" width="60" height="30" as="geometry" />
        </mxCell>
        <mxCell id="C7X_2EN3PPDYc6NS7n13-25" value="End" style="strokeWidth=2;html=1;shape=mxgraph.flowchart.terminator;whiteSpace=wrap;labelBackgroundColor=none;" vertex="1" parent="1">
          <mxGeometry x="375" y="-350" width="100" height="50" as="geometry" />
        </mxCell>
      </root>
    </mxGraphModel>
  </diagram>
</mxfile>
